# xmcd
#
# Track frame offsets:
#	183
#	13390
#	26535
#	39138
#	49618
#	59030
#	71100
#	81408
#	95655
#	106625
#	115920
#	126815
#	140000
#	153300
#	166373
#	177145
#	186740
#	196553
#	210055
#	222875
#
# Disc length: 3155 seconds
#
# Revision: 0
# Processed by: cddbd v1.4PL0 Copyright (c) Steve Scherf et al.
# Submitted via: dBpowerAMP V4.0
#
DISCID=180c5114
DTITLE=Freddy Fender - The best of 
DYEAR=1900
DGENRE=Country
TTITLE0=Something on your mind
TTITLE1=Since I met you baby
TTITLE2=Almost persuaded
TTITLE3=Before the next teardrop falls
TTITLE4=Mathilda
TTITLE5=You'll lose a good thing
TTITLE6=Crazy baby
TTITLE7=Wasted days and wasted nights
TTITLE8=The rains came
TTITLE9=You made me cry
TTITLE10=Wild side of life
TTITLE11=Girl who waits on tables
TTITLE12=Going out with the tide
TTITLE13=Silver wings
TTITLE14=A man can cry
TTITLE15=Running back
TTITLE16=But I do
TTITLE17=Just because
TTITLE18=Enter my heart
TTITLE19=Baby I want to love you
EXTD=
EXTT0=
EXTT1=
EXTT2=
EXTT3=
EXTT4=
EXTT5=
EXTT6=
EXTT7=
EXTT8=
EXTT9=
EXTT10=
EXTT11=
EXTT12=
EXTT13=
EXTT14=
EXTT15=
EXTT16=
EXTT17=
EXTT18=
EXTT19=
PLAYORDER=
